<svg width="33" height="33" viewBox="0 0 33 33" fill="none" xmlns="http://www.w3.org/2000/svg">
<g clip-path="url(#clip0_2641_7815)">
<path fill-rule="evenodd" clip-rule="evenodd" d="M14.795 4.71484C9.18451 4.71484 4.77148 9.28641 4.77148 14.9655C4.77148 20.6374 9.17747 25.2162 14.6538 25.2162C16.7286 25.2162 18.6808 24.5618 20.3845 23.2637L25.8708 28.957C26.1351 29.2313 26.5941 29.4648 27.0774 29.4648C27.5606 29.4648 28.0197 29.2313 28.2839 28.957C28.5482 28.6828 28.7715 28.2086 28.7715 27.7114C28.7715 27.4625 28.6732 27.2266 28.6095 27.0945C28.5349 26.9396 28.4241 26.7577 28.2839 26.6122L22.7924 20.9135C24.0461 19.1445 24.6774 17.1182 24.6774 14.9655C24.6774 9.29368 20.2714 4.71484 14.795 4.71484ZM8.15972 14.9655C8.15972 11.2612 11.0949 8.22178 14.6538 8.22178C18.2128 8.22178 21.148 11.2612 21.148 14.9655C21.148 18.8164 18.3539 21.7093 14.6538 21.7093C11.0949 21.7093 8.15972 18.6699 8.15972 14.9655Z" fill="#8BC63F"/>
</g>
<defs>
<clipPath id="clip0_2641_7815">
<rect width="32" height="33" fill="white" transform="translate(0.199219)"/>
</clipPath>
</defs>
</svg>
